<svg width="512" height="512" viewBox="0 0 512 512" xmlns="http://www.w3.org/2000/svg"><g transform="translate(2 2)" fill="none" fill-rule="evenodd"><ellipse fill="#282F3F" cx="253.811" cy="254.189" rx="253.316" ry="253.316"/><path d="M430.407 145.435l-83.379-70.69-23.563 27.188 83.379 70.69 23.563-27.188zM249.15 114.621c-90.63 0-163.133 72.503-163.133 163.133 0 90.629 72.504 163.132 163.133 163.132s163.13-72.503 163.13-163.132c0-90.63-72.503-163.133-163.132-163.133zm0 290.013c-70.691 0-126.881-56.19-126.881-126.88 0-70.691 56.19-126.881 126.88-126.881 70.692 0 126.882 56.19 126.882 126.88 0 70.691-56.19 126.881-126.881 126.881zm-74.317-300.888l-23.564-27.19-83.379 68.879 23.564 27.189 83.379-68.878z" fill="#1DE9B6"/><path d="M140.505 49.568c-56.638 0-102.712 46.074-102.712 102.712 0 77.034 102.712 190.75 102.712 190.75s102.712-113.716 102.712-190.75c0-56.638-46.073-102.712-102.712-102.712z" fill="#282F3F"/><path d="M258.212 187.124h-27.19V295.88l85.192 52.565 14.501-21.75-72.503-43.503v-96.067zM140.66 76.506c-46.44 0-84.218 37.777-84.218 84.218 0 63.164 84.219 156.405 84.219 156.405s84.218-93.241 84.218-156.405c0-46.44-37.778-84.218-84.218-84.218zm0 119.718c19.607 0 35.5-15.894 35.5-35.5s-15.893-35.5-35.5-35.5c-19.605 0-35.5 15.894-35.5 35.5s15.895 35.5 35.5 35.5z" fill="#1DE9B6"/></g></svg>