<?xml version="1.0" encoding="UTF-8" standalone="no"?>
<svg width="512px" height="512px" viewBox="0 0 512 512" version="1.1" xmlns="http://www.w3.org/2000/svg" xmlns:xlink="http://www.w3.org/1999/xlink">
    <defs></defs>
    <g id="iOS-&amp;-Android" stroke="none" stroke-width="1" fill="none" fill-rule="evenodd">
        <g id="Notes" transform="translate(-100.000000, -67.000000)"></g>
        <g id="GooglePlay">
            <g id="Icon" transform="translate(2.000000, 2.000000)">
                <ellipse id="Oval-1" fill="#282F3F" cx="253.811008" cy="254.188992" rx="253.315531" ry="253.315531"></ellipse>
                <path d="M430.407154,145.434981 L347.028292,74.7442071 L323.464701,101.932966 L406.843562,172.62374 L430.407154,145.434981 L430.407154,145.434981 Z M249.148759,114.621054 C158.519561,114.621054 86.0162031,187.124412 86.0162031,277.75361 C86.0162031,368.382807 158.519561,440.886165 249.148759,440.886165 C339.777956,440.886165 412.281314,368.382807 412.281314,277.75361 C412.281314,187.124412 339.777956,114.621054 249.148759,114.621054 L249.148759,114.621054 Z M249.148759,404.634486 C178.457985,404.634486 122.267882,348.444384 122.267882,277.75361 C122.267882,207.062835 178.457985,150.872733 249.148759,150.872733 C319.839533,150.872733 376.029635,207.062835 376.029635,277.75361 C376.029635,348.444384 319.839533,404.634486 249.148759,404.634486 L249.148759,404.634486 Z" id="Shape" fill="#1DE9B6"></path>
                <path d="M174.832817,103.74555 L151.269225,76.5567911 L67.8903636,145.434981 L91.4539549,172.62374 L174.832817,103.74555 L174.832817,103.74555 Z" id="Path" fill="#1DE9B6"></path>
                <path d="M140.505405,49.5680623 C83.8671088,49.5680623 37.7934688,95.6417024 37.7934688,152.279999 C37.7934688,229.313951 140.505405,343.030738 140.505405,343.030738 C140.505405,343.030738 243.217342,229.313951 243.217342,152.279999 C243.217342,95.6417024 197.143702,49.5680623 140.505405,49.5680623 L140.505405,49.5680623 Z" id="Path-Copy" fill="#282F3F"></path>
                <path d="M258.211678,187.124412 L231.022919,187.124412 L231.022919,295.879449 L316.214365,348.444384 L330.715036,326.693376 L258.211678,283.191361 L258.211678,187.124412 L258.211678,187.124412 Z" id="Path" fill="#1DE9B6"></path>
                <path d="M140.660814,76.5055012 C94.2204099,76.5055012 56.4424649,114.283446 56.4424649,160.72385 C56.4424649,223.887611 140.660814,317.129354 140.660814,317.129354 C140.660814,317.129354 224.879162,223.887611 224.879162,160.72385 C224.879162,114.283446 187.101217,76.5055012 140.660814,76.5055012 Z M140.660814,196.22385 C160.266922,196.22385 176.160814,180.329958 176.160814,160.72385 C176.160814,141.117741 160.266922,125.22385 140.660814,125.22385 C121.054705,125.22385 105.160814,141.117741 105.160814,160.72385 C105.160814,180.329958 121.054705,196.22385 140.660814,196.22385 Z" id="Shape" fill="#1DE9B6"></path>
            </g>
        </g>
    </g>
</svg>